/* XPM */
static char *coin2[] = {
/* columns rows colors chars-per-pixel */
"32 32 87 1 ",
"  c #1D1515",
". c #1E1616",
"X c #452E1A",
"o c #48301A",
"O c #6C451E",
"+ c #514B20",
"@ c #564F21",
"# c #564F2C",
"$ c #765D23",
"% c #7F7428",
"& c #514B4B",
"* c #565044",
"= c #565050",
"- c #765D46",
"; c #845420",
": c #9E6423",
"> c #B27026",
", c #B67828",
"< c #B67833",
"1 c #80756F",
"2 c #807B7B",
"3 c #A4A030",
"4 c #CC8529",
"5 c #D6852A",
"6 c #DB882C",
"7 c #DF8B2C",
"8 c #D2952C",
"9 c #D69D2E",
"0 c #DF9D2F",
"q c #F0952F",
"w c #F39730",
"e c #F39D31",
"r c #F99B31",
"t c #FD9D32",
"y c #D0B735",
"u c #D3BF36",
"i c #E5A031",
"p c #FDA233",
"a c #F9AC34",
"s c #FDAE35",
"d c #FDA33E",
"f c #E0B533",
"g c #EFB836",
"h c #FDB436",
"j c #C6C237",
"k c #E6C436",
"l c #FDC639",
"z c #F3CC39",
"x c #FDD23B",
"c c #F0DC3B",
"v c #F4E43D",
"b c #FDE43E",
"n c #FDEA3F",
"m c #FDB441",
"M c #E5A154",
"N c #FDAF58",
"B c #FDB559",
"V c #EFB97D",
"C c #C6C35A",
"Z c #FDD847",
"A c #FDC15B",
"S c #FDC75C",
"D c #FDEA4A",
"F c #FAF440",
"G c #FDF641",
"H c #FDC17E",
"J c #FDC77F",
"K c #FDE461",
"L c #FEF664",
"P c #A4A1A1",
"I c #D1B89F",
"U c #FDC78B",
"Y c #FEF787",
"T c #C6C4A1",
"R c #D4C0AC",
"E c #FED4A5",
"W c #FEDAA6",
"Q c #FEDAB2",
"! c #FEE5A8",
"~ c #FEEBA9",
"^ c #FEECB5",
"/ c #C6C4C4",
"( c #D4D3D3",
") c #FEECD8",
"_ c gray94",
"` c #FEF8F2",
"' c None",
/* pixels */
"''''''''''''    ... ''''''''''''",
"''''''''''''&==*##*&''''''''''''",
"'''''''''' &P//TCCTP& ''''''''''",
"''''''''''&2(`)^YY^I-X''''''''''",
"'''''''' &P(_)UJ^^JM,;X ''''''''",
"'''''''' =/`)QHHQENq5:o ''''''''",
"'''''''' =/)UHQQUNdq5:o ''''''''",
"''''''''&1RQHJ^~Sstw7>OX''''''''",
"'''''' &PRVHQ^YLDxsrw6>;X ''''''",
"'''''' *T^JHQ~LFvzattq5:o ''''''",
"'''''' #CY^QHSDvyiettq5:o ''''''",
"'''''' #CY^WAlnc95qttq5:o ''''''",
"'''''' *T^JAZnGc95qttq5:o ''''''",
"'''''' *T!BsxnGc95qttq5:o ''''''",
"'''''' #CKmpslnc95qttq5:o ''''''",
"'''''' @jbhtthbc95qttw5:o ''''''",
"'''''' @jbhtthbc95qttq5:o ''''''",
"'''''' @jbhtthbc95qttq5:o ''''''",
"'''''' @jbhtthbc95qttq5:o ''''''",
"'''''' @jbhtthbc95qttq5:o ''''''",
"'''''' @jbhtthbc95qttq5:o ''''''",
"'''''' @jbhttazk85qttq5:o ''''''",
"'''''' @jbhtte0845qttq5:o ''''''",
"'''''' @jbhttw6557qttq5:o ''''''",
"'''''' @jGhptrwqqwrttq5:o ''''''",
"'''''' +3jghpttttttrw6>;X ''''''",
"''''''''+;uxsttttttw7>OX''''''''",
"'''''''' +3yiwwqqqq6>;X ''''''''",
"''''''''''+$,555555>OX''''''''''",
"'''''''''' X;::::::;X ''''''''''",
"''''''''''''XooooooX''''''''''''",
"'''''''''''' ...... ''''''''''''"
};
