/* XPM */
static char *coin4[] = {
/* columns rows colors chars-per-pixel */
"32 32 84 1 ",
"  c #1D1515",
". c #1E1616",
"X c #452E1A",
"o c #48301A",
"O c #4C3827",
"+ c #6C451E",
"@ c #514B20",
"# c #564F21",
"$ c #765D23",
"% c #7F7428",
"& c #524842",
"* c #514B4B",
"= c #565050",
"- c #845420",
"; c #9E6423",
": c #B27026",
"> c #B67828",
", c #80754B",
"< c #A87C4B",
"1 c #80756F",
"2 c #A4A030",
"3 c #CC8529",
"4 c #D6852A",
"5 c #DB882C",
"6 c #DF8B2C",
"7 c #D2952C",
"8 c #D69D2E",
"9 c #DF9D2F",
"0 c #D68B37",
"q c #F0952F",
"w c #F39730",
"e c #F39D31",
"r c #F99B31",
"t c #FD9D32",
"y c #F39D3C",
"u c #D0B735",
"i c #D3BF36",
"p c #E5A031",
"a c #FDA233",
"s c #F9AC34",
"d c #FDAE35",
"f c #FDA33E",
"g c #E0B533",
"h c #EFB836",
"j c #FDB436",
"k c #C6C237",
"l c #E6C436",
"z c #FDC639",
"x c #F3CC39",
"c c #FDD23B",
"v c #F0DC3B",
"b c #F4E43D",
"n c #FDE43E",
"m c #FDEA3F",
"M c #D69850",
"N c #E09D52",
"B c #D3BF42",
"V c #F0A755",
"C c #FAAD57",
"Z c #FDAF58",
"A c #EFB859",
"S c #E0B079",
"D c #EFB97D",
"F c #FABF7E",
"G c #FAF440",
"H c #FDF641",
"J c #FDC17E",
"K c #BCAC9C",
"L c #A4A1A1",
"P c #E0B686",
"I c #FDC78B",
"U c #D4C0A1",
"Y c #D4C0AC",
"T c #F1CCA2",
"R c #F4CEA3",
"E c #FED4A5",
"W c #F4D4B0",
"Q c #FEDAB2",
"! c #C6C4C4",
"~ c #F4E6D6",
"^ c #FEECD8",
"/ c #FBF6F1",
"( c #FEF8F2",
") c None",
/* pixels */
"))))))))))))  ......))))))))))))",
"))))))))))))@######@))))))))))))",
")))))))))) @2kkkkkk2@ ))))))))))",
"))))))))))@%knnnnnnu$X))))))))))",
")))))))) @2ihjjjjjjp>-X ))))))))",
")))))))) #knjttttttq4;o ))))))))",
")))))))) #knjttttttq4;o ))))))))",
"))))))))@%icdadjjdaq6:+X))))))))",
")))))) @2ihdadcnncdrw5:-X ))))))",
")))))) #knjttjnGbxsttq4;o ))))))",
")))))) #knjttjnbg9ettq4;o ))))))",
")))))) #knjadzmv84qttq4;o ))))))",
")))))) #knjdcmHv84qttq4;o ))))))",
")))))) #knjdcmHv84qttq4;o ))))))",
")))))) #knjadzmv84qttq4;o ))))))",
")))))) #knjttjnv84qttq4;o ))))))",
")))))) #knjttjnv84qttq4;o ))))))",
")))))) #knjttjnv84qttyN<O ))))))",
")))))) #knjttjnv84qttCRK& ))))))",
")))))) #knjttjnv84qfZI^!= ))))))",
")))))) #knjttjnv84qZE^(!= ))))))",
")))))) #knjttsxl70VI^/~K& ))))))",
")))))) #knjtte973MT^(~P<O ))))))",
")))))) #knjttw65MP~(^WS<O ))))))",
")))))) #kGsttrwVT~/^IFWK& ))))))",
")))))) @2khdtVZI^(^QJDYL* ))))))",
"))))))))@;kcdZE^(^IJQY1*))))))))",
")))))))).#2BAI^/~WFDYL* ))))))))",
"))))))))))@,U^(~PSWY1*))))))))))",
")))))))))) *L!!K<<KL* ))))))))))",
"))))))))))))*==&OO&*))))))))))))",
"))))))))))))  ....  ))))))))))))"
};
