/* XPM */
static char *coin5[] = {
/* columns rows colors chars-per-pixel */
"32 32 105 2 ",
"   c #1D1515",
".  c #1E1616",
"X  c #452E1A",
"o  c #48301A",
"O  c #51351C",
"+  c #4C3827",
"@  c #6C451E",
"#  c #514B20",
"$  c #564F21",
"%  c #564F2C",
"&  c #754B20",
"*  c #7F6225",
"=  c #7F7428",
"-  c #524842",
";  c #514B4B",
":  c #565044",
">  c #765D46",
",  c #766353",
"<  c #845420",
"1  c #9E6423",
"2  c #A36626",
"3  c #B27026",
"4  c #B57227",
"5  c #B67833",
"6  c #80754B",
"7  c #807B58",
"8  c #A87C4B",
"9  c #A4A030",
"0  c #CF812C",
"q  c #D6852A",
"w  c #D3892D",
"e  c #DB882C",
"r  c #DF8B2C",
"t  c #DF912D",
"y  c #D68B37",
"u  c #E58E2E",
"i  c #F0952F",
"p  c #F39730",
"a  c #F99B31",
"s  c #FD9D32",
"d  c #F39D3C",
"f  c #D3B935",
"g  c #D3BF36",
"h  c #EFA633",
"j  c #FDA233",
"k  c #F3A933",
"l  c #FDAE35",
"z  c #FDA33E",
"x  c #EFB836",
"c  c #FDB436",
"v  c #C6C237",
"b  c #FDC038",
"n  c #FAD03A",
"m  c #FDD23B",
"M  c #FDD83C",
"N  c #FDE43E",
"B  c #B68A5A",
"V  c #D69850",
"C  c #E09D52",
"Z  c #D3BF42",
"A  c #FDB441",
"S  c #E5A154",
"D  c #F0A755",
"F  c #FAAD57",
"G  c #FDAF58",
"H  c #EFB859",
"J  c #FDB559",
"K  c #E0B079",
"L  c #FABF7E",
"P  c #C6C35A",
"I  c #FDC75C",
"U  c #FDEA4A",
"Y  c #D4D169",
"T  c #FDC17E",
"R  c #FDC77F",
"E  c #FDE461",
"W  c #FEF664",
"Q  c #BCAC9C",
"!  c #A4A1A1",
"~  c #D1B89F",
"^  c #E0B686",
"/  c #FDC78B",
"(  c #FEF787",
")  c #FEFD94",
"_  c #C6C4A1",
"`  c #D4C0A1",
"'  c #F1CCA2",
"]  c #F4CEA3",
"[  c #FED4A5",
"{  c #F4D4B0",
"}  c #FEDAB2",
"|  c #FEE5A8",
" . c #FEEBA9",
".. c #FEECB5",
"X. c #D1CBC5",
"o. c #D4D3C7",
"O. c #E6D8C8",
"+. c #F0EFCD",
"@. c #F4E6D6",
"#. c #FEECD8",
"$. c #FEFEDB",
"%. c #FBF6F1",
"&. c #FEF8F2",
"*. c #FEFEF3",
"=. c None",
/* pixels */
"=.=.=.=.=.=.=.=.=.=.=.=.    . . . . . . =.=.=.=.=.=.=.=.=.=.=.=.",
"=.=.=.=.=.=.=.=.=.=.=.=.# $ $ $ $ $ $ # =.=.=.=.=.=.=.=.=.=.=.=.",
"=.=.=.=.=.=.=.=.      # 9 v v v v v v 9 $ . =.=.=.=.=.=.=.=.=.=.",
"=.=.=.=.=.=.=.=.# $ $ = v N N N N N N f < O =.=.=.=.=.=.=.=.=.=.",
"=.=.=.=.=.=.  # 9 v v g x c c c c c c h w 2 O   =.=.=.=.=.=.=.=.",
"=.=.=.=.=.=.# = g N N m l s s s s s s s s 0 & X =.=.=.=.=.=.=.=.",
"=.=.=.=.  # 9 g x c c l j s s s s s s s s u 4 < o . =.=.=.=.=.=.",
"=.=.=.=.# = g m l s s s s j l l j s s s s d C B , ; =.=.=.=.=.=.",
"=.=.  # 9 g x l j s s s s l m m l s s s s F ] O.X.! ;   =.=.=.=.",
"=.=.  $ v N c s s s s j l b M n k p a z J / #.%.@.Q -   =.=.=.=.",
"=.=.  $ v N c s s s s l m M b k t r p G [ #.%.@.^ 8 + . =.=.=.=.",
"=.=.  $ v N c s s j l b M m l i q y D / #.%.#.{ K 8 + . =.=.=.=.",
"=.=.  $ v N c s s l m M b l j i q V ' #.&.#./ T { Q -   =.=.=.=.",
"=.=.  $ v N c s s l m M b l j d C ^ @.%.#.} T T { Q -   =.=.=.=.",
"=.=.  $ v N c s s j l b M m l F ] @.%.#./ T } { K 8 +   =.=.=.=.",
"=.=.  $ v N c s s s s c N U I / #.&.#.} T T } ' V 1 o   =.=.=.=.",
"=.=.  $ g N c s s s s c N W  .#.&.#./ T } } T D y 1 o   =.=.=.=.",
"=.=.  $ v U c s s s s A E ) $.%.@.{ L T } [ G p q 1 o   =.=.=.=.",
"=.=.  $ v N c s s s s J | $.*.@.^ K { } L G z i q 1 X   =.=.=.=.",
"=.=.  # v N c s s z J / #.%.#.{ K K { [ G s s i q 1 o   =.=.=.=.",
"=.=.  $ 9 N b j s G [ #.%.#./ T { { L G z s s i q 1 o   =.=.=.=.",
"=.=.  $ g N c l G / #.%.#.} T T } [ G s s s s i q 1 o   =.=.=.=.",
"=.=.  $ g U c J [ #.%.#./ T } } T G z s s s s i q 1 o   =.=.=.=.",
"=.=.  # 9 Z H / #.%.#.} T L } [ G s s s s a p r 3 < X   =.=.=.=.",
"=.=.=.=.# 6 ` #.&.#./ T } } L G z s s s s p r 3 @ X =.=.=.=.=.=.",
"=.=.=.=.  ; ! o.+...R T } [ G s s s s a p e 3 < X   =.=.=.=.=.=.",
"=.=.=.=.=.=.; 7 Y ( ..} T J z s s s s p r 3 @ X =.=.=.=.=.=.=.=.",
"=.=.=.=.=.=.  # 9 P _ ~ S i i i i i p e 3 < X   =.=.=.=.=.=.=.=.",
"=.=.=.=.=.=.=.=.# % : > 5 q q q q q q 3 @ X =.=.=.=.=.=.=.=.=.=.",
"=.=.=.=.=.=.=.=.      X < 1 1 2 1 1 1 < X   =.=.=.=.=.=.=.=.=.=.",
"=.=.=.=.=.=.=.=.=.=.=.=.X o o o o o X X =.=.=.=.=.=.=.=.=.=.=.=.",
"=.=.=.=.=.=.=.=.=.=.=.=.    . . .       =.=.=.=.=.=.=.=.=.=.=.=."
};
