/* XPM */
static char *coin1[] = {
/* columns rows colors chars-per-pixel */
"32 32 95 2 ",
"   c #1D1515",
".  c #1E1616",
"X  c #452E1A",
"o  c #48301A",
"O  c #6C451E",
"+  c #514B20",
"@  c #564F21",
"#  c #564F2C",
"$  c #765D23",
"%  c #7F7428",
"&  c #514B4B",
"*  c #565044",
"=  c #565050",
"-  c #765D46",
";  c #845420",
":  c #9E6423",
">  c #B27026",
",  c #B67828",
"<  c #B67833",
"1  c #80754B",
"2  c #80756F",
"3  c #A4A030",
"4  c #D6852A",
"5  c #DC892B",
"6  c #DB882C",
"7  c #DF8B2C",
"8  c #DF912D",
"9  c #D68B37",
"0  c #E9912E",
"q  c #F0952F",
"w  c #F39730",
"e  c #F99B31",
"r  c #FD9D32",
"t  c #F39D3C",
"y  c #D0B735",
"u  c #D3BF36",
"i  c #E5A031",
"p  c #FDA233",
"a  c #F3A933",
"s  c #FDAE35",
"d  c #FDA33E",
"f  c #EFB836",
"g  c #FDB436",
"h  c #C6C237",
"j  c #FAD03A",
"k  c #FDD23B",
"l  c #FDE43E",
"z  c #D69850",
"x  c #E09D52",
"c  c #D3BF42",
"v  c #FDB441",
"b  c #E5A154",
"n  c #F0A755",
"m  c #FAAD57",
"M  c #FDAF58",
"N  c #EFB859",
"B  c #FDB559",
"V  c #E0B079",
"C  c #EFB97D",
"Z  c #FABF7E",
"A  c #C6C35A",
"S  c #FDC644",
"D  c #FDC75C",
"F  c #FDEA4A",
"G  c #FDC17E",
"H  c #FDC77F",
"J  c #FDE461",
"K  c #FEEA62",
"L  c #FEF664",
"P  c #A4A1A1",
"I  c #D1B89F",
"U  c #E0B686",
"Y  c #FDC78B",
"T  c #FEF787",
"R  c #FEFD94",
"E  c #C6C4A1",
"W  c #D4C0A1",
"Q  c #D4C0AC",
"!  c #F1CCA2",
"~  c #F4CEA3",
"^  c #FED4A5",
"/  c #F4D4B0",
"(  c #FEDAB2",
")  c #FEE5A8",
"_  c #FEEBA9",
"`  c #FEF7AB",
"'  c #FEECB5",
"]  c #C6C4C4",
"[  c #F4E6D6",
"{  c #FEECD8",
"}  c #FEFEDB",
"|  c #FBF6F1",
" . c #FEF8F2",
".. c #FEFEF3",
"X. c None",
/* pixels */
"X.X.X.X.X.X.X.X.X.X.X.X.    . . . . . . X.X.X.X.X.X.X.X.X.X.X.X.",
"X.X.X.X.X.X.X.X.X.X.X.X.+ @ @ @ @ @ @ + X.X.X.X.X.X.X.X.X.X.X.X.",
"X.X.X.X.X.X.X.X.      + 3 h h h h h h 3 +       X.X.X.X.X.X.X.X.",
"X.X.X.X.X.X.X.X.+ @ @ % h l l l l l l c 1 = = & X.X.X.X.X.X.X.X.",
"X.X.X.X.X.X.  + 3 h h u f g g g g g g N W ] ] P &   X.X.X.X.X.X.",
"X.X.X.X.X.X.+ % u l l k s r r r r d M Y {  .{ Q 2 & X.X.X.X.X.X.",
"X.X.X.X.  + 3 u f g g s p r r r r M ^ {  .{ Y C Q P &   X.X.X.X.",
"X.X.X.X.+ % u k s r r r r p s v B Y {  .{ ( Z G ( I - X X.X.X.X.",
"X.X.  + 3 u f s p r r r r s k J ) {  .{ Y G ( ( G b < ; X   X.X.",
"X.X.  @ h l g r r r r p s S K R }  .[ / Z G ( ^ M q 4 : o   X.X.",
"X.X.  @ h l g r r r r s k K ` } ..[ U V / ( G M d q 4 : o   X.X.",
"X.X.  @ h l g r r p s S K R }  .{ / V V / ^ M r r q 4 : o   X.X.",
"X.X.  @ h l g r r s k K ` } ..{ Y Z / / Z M d r r q 4 : o   X.X.",
"X.X.  @ h l g r r v J R }  .{ ( G Z / ~ m r r r r q 4 : o   X.X.",
"X.X.  @ h l g r r B ) } ..{ Y G ( / V z t r r r r q 4 : o   X.X.",
"X.X.  @ h l g d M Y { ..} ' H G ( ~ z 6 q r r r r q 4 : o   X.X.",
"X.X.  @ h l g M ^ {  .} R T ' ( G n 9 4 q r r r r q 4 : X   X.X.",
"X.X.  @ h F D Y {  .{ ' T T ' ^ M q 4 4 q r r r r q 4 : o   X.X.",
"X.X.  @ h L _ {  .{ Y H ' ' H M d q 4 4 q r r r r q 6 : o   X.X.",
"X.X.  # A R }  .{ ( G H ' ) B r r q 4 4 q r r r r q 4 : o   X.X.",
"X.X.  * E } ..{ Y G ( ' T J v r r q 4 4 q r r r r q 4 : o   X.X.",
"X.X.  = ]  .{ ( G G ( ) J j a q q 0 7 7 q r r r r q 4 : o   X.X.",
"X.X.  = ] { Y G ( ( G B g a 0 4 4 7 0 q e r r r r q 4 : o   X.X.",
"X.X.  & P Q C G ( ^ M r p q 5 4 4 7 q r r r r e w 6 > ; X   X.X.",
"X.X.X.X.& 2 Q ( G m p r r e w q q w e r r r r w 7 > O X X.X.X.X.",
"X.X.X.X.  & P W N g g s p r r r r r r e w q q 6 > ; X   X.X.X.X.",
"X.X.X.X.X.X.& 1 A l l k s r r r r r r w 7 4 4 > O X X.X.X.X.X.X.",
"X.X.X.X.X.X.  + 3 h h y i q q q q q q 6 > : : ; X   X.X.X.X.X.X.",
"X.X.X.X.X.X.X.X.+ @ @ $ , 4 4 6 4 4 4 > O o o X X.X.X.X.X.X.X.X.",
"X.X.X.X.X.X.X.X.      X ; : : : : : : ; X       X.X.X.X.X.X.X.X.",
"X.X.X.X.X.X.X.X.X.X.X.X.X X o o o o o X X.X.X.X.X.X.X.X.X.X.X.X.",
"X.X.X.X.X.X.X.X.X.X.X.X.    . . .       X.X.X.X.X.X.X.X.X.X.X.X."
};
