/* XPM */
static char *coin3[] = {
/* columns rows colors chars-per-pixel */
"32 32 58 1 ",
"  c #1D1515",
". c #1E1616",
"X c #452E1A",
"o c #48301A",
"O c #4C311B",
"+ c #4C371C",
"@ c #52351C",
"# c #55371D",
"$ c #52471F",
"% c #68431D",
"& c #6C451E",
"* c #514B20",
"= c #564F21",
"- c #7C6024",
"; c #7F7428",
": c #845420",
"> c #9E6423",
", c #A86925",
"< c #A86A24",
"1 c #A87B28",
"2 c #B27026",
"3 c #BE7726",
"4 c #BB7529",
"5 c #C57B2B",
"6 c #C97E28",
"7 c #CC7F28",
"8 c #A4A030",
"9 c #BCAA32",
"0 c #C9832B",
"q c #D28329",
"w c #D6852A",
"e c #DB882C",
"r c #DF8B2C",
"t c #D2942D",
"y c #D69D2E",
"u c #DF9D2F",
"i c #E68F2D",
"p c #F0952F",
"a c #F39730",
"s c #F39D31",
"d c #F99B31",
"f c #CAB333",
"g c #D3BF36",
"h c #E0A330",
"j c #F3AE34",
"k c #F9AC34",
"l c #E0B533",
"z c #EFB836",
"x c #FDB436",
"c c #C6C237",
"v c #F3CC39",
"b c #F0DC3B",
"n c #F4DE3C",
"m c #F4E43D",
"M c #FAE23D",
"N c #FDE43E",
"B c #FAF440",
"V c None",
/* pixels */
"VVVVVVVVVVVVVV    VVVVVVVVVVVVVV",
"VVVVVVVVVVVVVV*==*VVVVVVVVVVVVVV",
"VVVVVVVVVVVV *8cc8* VVVVVVVVVVVV",
"VVVVVVVVVVVV =cBm9* VVVVVVVVVVVV",
"VVVVVVVVVVVV =cml1+ VVVVVVVVVVVV",
"VVVVVVVVVVVV =cby,o VVVVVVVVVVVV",
"VVVVVVVVVVVV =cby,X VVVVVVVVVVVV",
"VVVVVVVVVVVV*;gvu<%XVVVVVVVVVVVV",
"VVVVVVVVVV *8gzkse2:X VVVVVVVVVV",
"VVVVVVVVVV =cNxdaiq>o VVVVVVVVVV",
"VVVVVVVVVV =cNxarq7>o VVVVVVVVVV",
"VVVVVVVVVV =cNxpw66>o VVVVVVVVVV",
"VVVVVVVVVV =cNxpw66>o VVVVVVVVVV",
"VVVVVVVVVV =cNxpw66>o VVVVVVVVVV",
"VVVVVVVVVV =cNxpw66>o VVVVVVVVVV",
"VVVVVVVVVV =cNxpw66>o VVVVVVVVVV",
"VVVVVVVVVV =cNxpw66>o VVVVVVVVVV",
"VVVVVVVVVV =cNxpw66>o VVVVVVVVVV",
"VVVVVVVVVV =cNxpw66>o VVVVVVVVVV",
"VVVVVVVVVV =cNxpw66>o VVVVVVVVVV",
"VVVVVVVVVV =cNxpw66>o VVVVVVVVVV",
"VVVVVVVVVV =cMjiq66>o VVVVVVVVVV",
"VVVVVVVVVV =cnhq766>o VVVVVVVVVV",
"VVVVVVVVVV *8ftq73<:X VVVVVVVVVV",
"VVVVVVVVVVVV*-0iq<%XVVVVVVVVVVVV",
"VVVVVVVVVVVV #5pw>o VVVVVVVVVVVV",
"VVVVVVVVVVVV #5aw>o VVVVVVVVVVVV",
"VVVVVVVVVVVV @4iq>o VVVVVVVVVVVV",
"VVVVVVVVVVVV O<q7>o VVVVVVVVVVVV",
"VVVVVVVVVVVV X:>>:X VVVVVVVVVVVV",
"VVVVVVVVVVVVVVXooXVVVVVVVVVVVVVV",
"VVVVVVVVVVVVVV    VVVVVVVVVVVVVV"
};
