/* XPM */
static char *out[] = {
/* columns rows colors chars-per-pixel */
"64 64 23 1 ",
"  c #054242",
". c #0A5858",
"X c #0F6B6B",
"o c #106F6F",
"O c #117373",
"+ c #137776",
"@ c #147B7A",
"# c #555555",
"$ c #646464",
"% c #168282",
"& c #178A8A",
"* c #199696",
"= c #199A99",
"- c #1AA2A1",
"; c #1BA6A5",
": c #2DAEAD",
"> c #2EB2B1",
", c #4EBEBD",
"< c #76C6C6",
"1 c #9CDBDA",
"2 c #B8E7E7",
"3 c #D8F3F3",
"4 c gray99",
/* pixels */
"################################################################",
"1;;;;;>>>>>,,,>,,,>,>,>,>>>>>>>>>>>>;;;;;;;;;;;;;;;;;;;;;;;;;;;.",
"1-;;<<-;>>>>,>,>,>,,,,,>,>,>,>,>>>>>>>>>>>>>>>>;;;;;;;;;;;<<-;;.",
"1*-<41&@;;>>;>>,>,>,>,,,,,,,>,>,>,>,>,>>>>>>>>>>>>>>>>>>><41&@;.",
"1**<1-&@;;;;>;>>>>>>,>,>,,,,,,,,,,,>,>,>,>,>,>>>>>>>>>>>><1-&@>.",
"1&**-&@;--;;;;;>;>;>>>>,>,>,,,,,,,,,,,,,,,>,>,>,>,>,>>>>>>-&@;;.",
"1&&&**=-----X;;;X;>;X>>>X>,>X>,,X,,,X,,,X,,,X,,>X>,>X>,>,>>>>>>.",
"1&&&&**==-----;;;;;>;>;>>>>>>,>,>,,,,,,,,,,,,,,,,,,,,,>,>,>,>,>.",
"1&&&&&&**==oooooooooooooooooooooooooooooooooooooooooo3,,,,,>,>,.",
"1%&&&&&&***o........oooooooooooooooooooooooooooooooo<3,,,,,,,,,.",
"1%%&::-&&&*o.==*;;;-;;;;;;>;>;>>>>>>>>,>,>,>,,,,,,,,13,,,,<<-;,.",
"<@%:1,&o&&&o.**==;*;*-;;;;;;;>;>;>;>;>>>>,>,>,>,,,,,13,,,<41&@,.",
"<@@*,-&o&&&o.&**===*;;;-;;;;;;;;>;>>>>>>>>>>>>,>,>,,13,,,<1-&@,.",
"<@@@*&oo%&&X.*&***===;*;*-;;;;;;;>;>;>;>;>>>>>>>>,>,13,,,>-&@;,.",
"<@@@ooo@&%&X.&&*****==;*;;;-;;;;;;;;>;>;>>>>>>>>>>>>13,>,,,,,,,.",
"<+@@@@%%@%%X.&&&&*&***==*;*;*-;;;;;;;;;>;>;>;>>>>>>>13>,>,>,,,,.",
"<++@@@@%%%%X.&&&&&*&****==;*;;;-;;;;;;;;>;>;>>>>>>>>13>>>>,>,>,.",
"<+++@@@@%%%X.&&&&&&***&***==*;*;*-;;;;;;;;;>;>>>;>>>13>>>>>>>,>.",
",++%**&@@%%X.%&%&&&&*&******==;*;;;-;;;;;;;;;;>;>>>>13>>>;<<-;>.",
",O+*>-&o@@%X.%%&%&%&&*&*&****===*;*;*-;;;;;;;;;>;>;>13;>><41&@>.",
",O+&--+.@@@X.%%%&%&&&&&&*******===;*;;;-;;;;;;;;;;>;13>>><1-&@>.",
",OOo+oo.+@@..%@%%&%&%&&&&*&*&****===*;*;*-;;;;;;;;;;13;>;>-&@;>.",
",OOX...X@+@..@%%%%&%&&&&&&*********===;*;;;-;;;;;;;;13>;>>>>>>>.",
",oOOO++++@+..@@%@%%%%&%&&&&*&*&*&***====*;*;*-;;;;;;13;;;>;>;>;.",
",oOOO+++++@..@@@%%%%%%&&&&&&*&********====;*;;;-;;;;13;;;;;;>;>.",
",XoOOOO++++..@@@@%@%%%%&%&&&&*&*&*&*****====*;*;*-;;13;;;;;;;>;.",
",Xo@*&%O+++..@@@@@%%%%%%&%&&&&&&**********====;*;;;-<3;;;;<<-;;.",
",XX*>*&oO++..@@@@@@%@%%%%&%&&&&&&*&*&******==*==*;*;<3;;;<41&@;.",
",oX&*&o.OO+..+@@@@@@%%%%%%&%&&&&&&*&*********=====;*<2;-;<1-&@;.",
",Ooooo..O++..@+@@@@@@%@%%%%&%&&&&&&*&*&********=====<2*;*>-&@;;.",
",OoX...XOO+..+@+@@@@@@%@%%%%&%&&&&&&&&*&*&*******===<2;*;;;-;;;.",
",+OoXXoOOOO..++@+@@@@@@%@%%%%%%&%&&&&&&*&**********=<2==*;*;*-;.",
">+OoXXooOOO..+++@+@@@@@@%@%%%%%%&&&&&&&&*&*&********<2=*==;*;;-.",
">++OoXXoOOO..++++@+@@@@@@%@%%%%%%&%&%&&&&*&*********<2*=====*;*.",
">++@&@XXoOO..O++++@+@@@@@@%@%%%%%%&%&&&&&&&&*&******<2***;<<-;-.",
">++&-*@oooO..OO++++@+@@@@@@%@%@%%%%&%&%&&&&&&*&*&***,1***<41&@=.",
">@+&*&o.XoO..OOO++++@+@@@@@@%@%%%%%%&%&&&&&&&&*&****,1***<1-&@*.",
">@+ooo..XXo..OOOO++++@+@@@@@@%@%@%%%%&%&%&&&&&&*&*&*,1****-&@;=.",
":@@X...XXXo..OOO+O++++@+@@@@@@@@%%%%%%&%&&&&&&&&&&*&,1*********.",
":@@++OOoXXX..OOOO+O++++@+@@@@@@%@%@%%%%&%&%&&&&&&*&*,1*********.",
":@@+++OooXX..OOOOO+O++++@+@@@@@@@@%%%%%%%%&&&&&&&&&&,<*********.",
":@@@++OOooX..oOOOOO++++++@+@@@@@@%@%@%@%%%%&%&&&&&&&,<&***&****.",
":@@%*&+oooX..ooOOOOO++++++@+@@@@@@@@%%%%%%%%&%&&&&&&,<&&*;,,-&*.",
":%@*>*&oOoo..XoOOOOOO++++++@+@@@@@@%@%@%@%%%%&%&&&&&,<&*&,1<&@*.",
":%@&*&o.Ooo..XooOOOOOO++++++@+@@@@@@@@%%%%%%%%&%&&&&><&&&><<&@*.",
":%%ooo..OOo..XXooOOOOOO++++++@+@@@@@@%@%@%@%%%%&%&&&><&&&&-&@&&.",
":%%X...XOOo..XXXoOOOOOOO++++++@+@@@@@@@@%@%%%%%%&%&&><&&&&&&*&&.",
":%%@@@+++OO..XXXooOOOOO+O++++++@+@@@@@@%@%@%@%%%%&%&>,&&&&&&&*&.",
":%%%@@+++OO..oXXXooOOOOO+O++++++@+@@@@@@@@%@%%%%%%%%>,&&&&&&&&&.",
":%%%@@@+++O..oXXXXoOOOOOO+O++++++@+@@@@@@%@%@%@%%%%%:,&&&&&&&&&.",
":%%%*&&@++O..ooXXXooOOOOOO+O++++++@+@@@@@@@@%@%%%%%%:,&%&&>>-&&.",
":%%*>*&o++O..oooXXXooOOOOOO+O++++++@+@@@@@@%@%@%@%%%-,%&%>1,&@&.",
":%%&*&o.+++..oooXXXXoOOOOOOO+O++++++@+@@@@@@@@%@%%%%->%%&>,-%o&.",
":&%ooo..+++..OoooXXXoXOOOOOOO++++++++@+@@@@@@%@%@%@%->%%%&-&@o&.",
":&%X...X@++.X&&&%%%%%%%%&&&&&&&&&&&&&&&&&&&&&&****--->%%%%&oo&&.",
":&%%%%@@@++.%**&&&&&&&&&&&&&*******--------------:>>>>%%%%%&&&&.",
":&%%%%@@@@++OOOoooXXXXoXOOOOOO+++++++++@@+@@@@@@@@%@%%%%%%%%%&&.",
":&%%%%@@@@++ OOO ooX XXo OOO OO+ +++ +++ @+@ @@@ %@% %@%%%%%%%&.",
":&&@**+@@@+++OOOooooXXXXoOOOOOOO++++++++++@+@@@@@@@@%@%%%%--&%%.",
":&&*,:@X@@@+++OOOoooXXXXoXOOOOOOO+O++++++++@+@@@@@@%@%@%@-<>&o%.",
":&&*:%X.@@@+++OOOooooXXXXooOOOOOOO+O++++++++@+@@@@@@@@%@%->-%o%.",
":&&@XX..@@@@+++OOOoooXXXXXoOOOOOOOO+O++++++++@+@@@@@@%@%@%%%oo%.",
":&&X...o@@@@+++OOOooooXXXXoXOOOOOOOO+O++++++++@+@@@@@@@@%@ooo%%.",
"$$$$$$$$$$$$$$$$$$$$$$$$$$$$$$$$$$$$$$$$$$$$$$$$$$$$$$$$$$$$$$$$"
};
